<svg xmlns="http://www.w3.org/2000/svg" viewBox="0 0 1254 1254"><path fill="#21aea9" d="M477.9 234.81q3.1 0 6.18-.03c12.3-.06 23.9 1.7 35.8 4.84l2.94.78c9.17 2.47 18.07 5.59 27 8.78a221 221 0 0 0 15.9 4.9q5.32 1.52 10.6 3.23c25.49 8.03 48.83 13.72 75.68 12.69l3.96-.1c22.07-1.66 44.51-12.63 64.8-20.99 29.9-12.29 61.68-20.48 93.05-8.1 19.36 8.1 34.54 19.64 43.19 39.19 9.47 27.19 4.98 55.2-7.22 80.76-7.75 15.6-17.68 28.77-29.78 41.24l-1.72 1.8A210 210 0 0 1 791 428l-2.04 1.52c-30.87 22.97-64.46 41.9-98.14 60.38q-14.44 7.94-28.64 16.3-7.04 4.19-14.2 8.15c-26.54 14.64-52.4 31.15-76.04 50.1q-3.55 2.8-7.14 5.52c-21.7 16.45-43.2 35.4-59.8 57.03l-2.3 2.82A213 213 0 0 0 488 651l-1.71 2.75c-5.02 8.12-5.02 8.12-6.6 17.37l-.05 2.58c.2 2.33.2 2.33 1.53 4.08 6.95 4.63 20.06.56 27.88-.93 2.45-.5 4.72-1.09 7.11-1.83 5.7-1.52 11.5-2.22 17.34-3.02l3.57-.5 7.28-1q3.5-.48 6.97-1.06c11.5-1.84 22.99-1.74 34.62-1.7q5.29.01 10.58-.01c19.55-.02 38.8 1.39 58.17 4.14l3.69.52a368 368 0 0 1 23.96 4.24c6.01 1.28 12 2.2 18.1 2.98C703 680 703 680 705 681q2.02.26 4.06.44c3.06.3 5.96.75 8.94 1.5 5.35 1.27 10.78 1.8 16.24 2.36 5.56.6 5.56.6 7.76 1.7 8.46 1.29 16.97 1.24 25.5 1.25h2.3c11.05 0 21.44-.57 32.2-3.25l3.3-.66c10.12-2.07 20-5.52 29.51-9.52C837 674 837 674 840 674c-4.22 13.5-17.14 21.68-28.95 27.96-10.32 5.3-20.61 8.21-32.05 10.04l-3.78.62c-34.33 5.13-69.5-1.35-103.5-6.22l-2.6-.37q-5.36-.76-10.7-1.59c-19.28-2.96-38.5-3.77-57.98-3.7q-5.45.01-10.9-.01a325 325 0 0 0-57.79 5.08l-4.54.8c-20.79 3.6-20.79 3.6-41.3 8.51-4.3 1.1-8.48 1.18-12.91 1.13l-2.29.02c-6.93-.02-13.67-.61-19.02-5.46l-1.93-1.67c-4.57-5.56-5.26-10.95-5.13-17.89l.02-2.4A53 53 0 0 1 448 671l.88-2.4A259 259 0 0 1 452 661l1.17-3c10.51-26.14 27.58-49.73 46.5-70.42q2.82-3.13 5.58-6.35c3.88-4.44 8-8.63 12.19-12.8l2.16-2.16c4.63-4.63 9.43-9 14.4-13.27l3.57-3.14c8.26-7.24 16.7-14.2 25.43-20.86l1.9-1.45c30.56-23.31 63-44.04 95.6-64.36a1348 1348 0 0 0 30.24-19.34c21.8-14.37 43.42-28.73 63.54-45.44q2.23-1.82 4.53-3.6A192 192 0 0 0 794 359l1.22-1.57A118 118 0 0 0 811 330l1.06-2.51c3.46-8.69 4.97-19.45 1.32-28.3-4.83-9.26-11.74-14.57-21.66-17.97-1.88-.5-3.8-.86-5.72-1.22l-2.56-.52c-18.43-2.58-36.48.5-54.44 4.52l-3.48.78c-13.07 2.85-13.07 2.85-25.86 6.73-18.25 6.24-38.67 6.98-57.78 6.99l-2.52.01c-23.2.05-44.71-4.5-67.05-10.51l-7.22-1.9a2415 2415 0 0 1-27.6-7.44c-24.28-6.4-52.25-8.97-75.36 2.46C444.77 291.36 435 306.85 430 326c-1.97 8.26-2.32 16.28-2.25 24.75l.02 3.76c.1 8.68.5 16.97 2.23 25.49q.23 1.13.44 2.3c5.36 27.34 18.65 63.56 39.22 83.29C471 467 471 467 471 469a25 25 0 0 1-7.21-4.8l-1.81-1.7-1.92-1.81-2-1.9-4.1-3.9-3.72-3.55c-9.19-8.65-16.89-18.09-24.24-28.34l-1.38-1.91C408.1 397.9 397.55 371.86 392 344l-.74-3.56c-4.28-23.46-.35-47.89 12.94-67.85 2.16-2.98 4.4-5.8 6.8-8.59l2.04-2.38c16.6-17.88 40.88-26.8 64.87-26.8"/></svg>