<svg version="1.0" xmlns="http://www.w3.org/2000/svg" width="442.000000pt" height="524.000000pt" viewBox="0 0 442.000000 524.000000" preserveAspectRatio="xMidYMid meet" style="width: 385.772px; height: auto;"> <g transform="translate(0.000000,524.000000) scale(0.100000,-0.100000)" fill="#36a199" stroke="none"> <path d="M3235 4735 c-171 -26 -408 -93 -750 -212 -71 -25 -134 -49 -138 -53 -9 -8 64 5 368 64 311 60 389 69 584 63 194 -5 250 -16 366 -71 96 -45 167 -112 207 -194 30 -62 33 -74 32 -162 -1 -109 -20 -170 -83 -266 -163 -251 -423 -441 -1281 -932 -828 -473 -1117 -667 -1394 -932 -233 -224 -368 -447 -413 -684 -23 -120 -13 -312 22 -431 106 -363 395 -665 636 -665 68 0 105 16 143 61 53 62 73 139 106 400 36 295 63 415 127 568 70 171 168 286 296 346 171 82 344 68 482 -39 162 -126 244 -336 295 -751 45 -369 54 -417 97 -497 101 -186 333 -114 521 160 133 194 226 434 274 702 20 115 17 518 -5 645 -19 108 -77 325 -86 325 -4 0 -3 -37 1 -82 36 -434 -47 -880 -232 -1248 -67 -134 -114 -202 -182 -267 -67 -62 -108 -74 -165 -47 -73 36 -96 112 -114 367 -26 383 -81 592 -195 746 -131 177 -372 242 -613 166 -336 -108 -538 -408 -605 -900 -39 -281 -61 -345 -130 -379 -33 -16 -44 -17 -90 -7 -96 22 -199 123 -265 258 -78 159 -97 381 -48 564 71 268 271 529 607 790 194 151 519 355 1040 654 974 559 1292 802 1434 1098 146 303 42 634 -244 774 -47 23 -112 49 -145 58 -83 23 -341 28 -460 10z" class=""></path> <path d="M1003 4716 c-158 -30 -292 -93 -402 -189 -345 -299 -408 -861 -154 -1372 67 -135 181 -299 278 -400 47 -49 84 -85 82 -80 -3 6 -23 40 -46 78 -110 181 -192 378 -237 572 -25 108 -28 139 -29 305 0 217 15 294 90 445 99 203 257 334 468 387 67 17 101 20 192 15 121 -6 212 -29 395 -99 171 -65 328 -118 440 -146 95 -24 123 -26 300 -27 156 0 211 4 275 19 79 18 249 75 243 81 -2 2 -46 -3 -98 -11 -171 -25 -333 -15 -500 31 -107 30 -185 63 -420 177 -239 117 -348 161 -473 193 -127 32 -298 41 -404 21z" class=""></path> </g> </svg>